<svg width="256" height="270" viewBox="0 0 256 270" fill="none" xmlns="http://www.w3.org/2000/svg">
<circle cx="112" cy="157.176" r="109.5" stroke="black" stroke-width="5"/>
<path d="M95.0001 101.676C62.2001 136.476 49.5 142.676 41.5001 145.176C40 147.676 41 149.176 42.0001 150.176C52.8001 159.376 85.1667 125.009 100 106.676C126.4 79.8759 148.333 75.1759 156 76.1759C134.4 68.576 106.333 90.0093 95.0001 101.676Z" fill="#0E0000"/>
<path d="M158.5 142.676C170.1 105.876 160.333 84.3426 154 78.176C166.5 77.9075 176 128.676 158.5 163.676C141 198.676 143.5 212.176 143.5 219.676C143.5 225.676 140.167 225.509 138.5 224.676C130.1 216.676 135 196.009 138.5 186.676C146.5 172.276 155.167 151.343 158.5 142.676Z" fill="#0E0000"/>
<path d="M104 198.176C78.4 186.576 49.6667 162.343 38.5 151.676C42 170.176 90 195.176 107 208.676C120.6 219.476 129.333 223.843 132 224.676C130 218.276 112.5 204.343 104 198.176Z" fill="#0E0000"/>
<path d="M76.5 208.676C64.5 205.476 66.5 223.343 69 232.676C77.8 231.476 83.6667 224.509 85.5 221.176C87.5 218.343 88.5 211.876 76.5 208.676Z" fill="#0E0000"/>
<path d="M117.5 181.676C117 178.176 118.9 171.176 130.5 171.176C133.667 172.343 135.5 176.076 117.5 181.676Z" fill="#0E0000"/>
<path d="M126 181.676C114.8 185.676 114.667 190.009 116 191.676C118.5 191.676 124.6 190.676 129 186.676C133.4 182.676 128.833 181.676 126 181.676Z" fill="#0E0000"/>
<path d="M117.5 198.176C117.833 196.509 120 193.476 126 194.676C124.833 196.176 121.5 198.976 117.5 198.176Z" fill="#0E0000"/>
<path d="M163.5 72.176C160.3 72.576 160.5 76.3426 161 78.176C163.8 78.9759 167.5 75.1759 169 73.176C168.5 72.676 166.7 71.776 163.5 72.176Z" fill="#0E0000"/>
<path d="M197 48.176C206.5 36.0093 226.6 12.676 231 16.676C236.5 21.676 215.5 34.676 197 48.176Z" fill="#0E0000"/>
<path d="M174 33.176C172.833 21.5094 171.8 -1.22396 177 1.17604C183.5 4.17604 176 24.1761 174 33.176Z" fill="#0E0000"/>
<path d="M221.696 71.5443C221.457 71.7584 221.225 71.9691 221 72.176C221 72.0263 221.202 71.8127 221.696 71.5443C230.31 63.8223 247.773 51.7243 254 60.676C256.333 61.8427 257 64.776 241 67.176C228.593 69.0371 223.402 70.6175 221.696 71.5443Z" fill="#0E0000"/>
<path d="M41.5001 145.176C49.5 142.676 62.2001 136.476 95.0001 101.676C106.333 90.0093 134.4 68.5759 156 76.1759C148.333 75.176 126.4 79.8759 100 106.676C85.1667 125.009 52.8001 159.376 42.0001 150.176C41 149.176 40 147.676 41.5001 145.176ZM154 78.176C160.333 84.3426 170.1 105.876 158.5 142.676C155.167 151.343 146.5 172.276 138.5 186.676C135 196.009 130.1 216.676 138.5 224.676C140.167 225.509 143.5 225.676 143.5 219.676C143.5 212.176 141 198.676 158.5 163.676C176 128.676 166.5 77.9075 154 78.176ZM38.5 151.676C49.6667 162.343 78.4 186.576 104 198.176C112.5 204.343 130 218.276 132 224.676C129.333 223.843 120.6 219.476 107 208.676C90 195.176 42 170.176 38.5 151.676ZM69 232.676C66.5 223.343 64.5 205.476 76.5 208.676C88.5 211.876 87.5 218.343 85.5 221.176C83.6667 224.509 77.8 231.476 69 232.676ZM117.5 181.676C117 178.176 118.9 171.176 130.5 171.176C133.667 172.343 135.5 176.076 117.5 181.676ZM116 191.676C114.667 190.009 114.8 185.676 126 181.676C128.833 181.676 133.4 182.676 129 186.676C124.6 190.676 118.5 191.676 116 191.676ZM117.5 198.176C117.833 196.509 120 193.476 126 194.676C124.833 196.176 121.5 198.976 117.5 198.176ZM161 78.176C160.5 76.3426 160.3 72.576 163.5 72.176C166.7 71.776 168.5 72.676 169 73.176C167.5 75.1759 163.8 78.9759 161 78.176ZM197 48.176C206.5 36.0093 226.6 12.676 231 16.676C236.5 21.676 215.5 34.676 197 48.176ZM174 33.176C172.833 21.5094 171.8 -1.22396 177 1.17604C183.5 4.17604 176 24.1761 174 33.176ZM221 72.176C229.333 64.5093 247.6 51.4761 254 60.676C256.333 61.8427 257 64.776 241 67.176C225 69.576 221 71.5093 221 72.176Z" stroke="black"/>
</svg>
